<svg xmlns="http://www.w3.org/2000/svg" width="920" height="560" viewBox="0 0 920 560" role="img" aria-labelledby="title desc">
  <title>Tracked vs Untracked Memory</title>
  <desc>Final RSSAnon compared with JVM Native Memory Tracking committed memory.</desc>
  <rect width="920" height="560" fill="#FAFAF7"/>
  <text x="90" y="36" font-family="Helvetica, Arial, sans-serif" font-size="24" font-weight="700" fill="#1F2933">Tracked vs Untracked Memory</text>
  <text x="90" y="58" font-family="Helvetica, Arial, sans-serif" font-size="12" fill="#52606D">Final RSSAnon compared with JVM Native Memory Tracking committed memory.</text>
  <text x="24" y="270.0" transform="rotate(-90 24 270.0)" font-family="Helvetica, Arial, sans-serif" font-size="12" fill="#52606D">GiB</text>
  <line x1="90" y1="470" x2="880" y2="470" stroke="#7B8794" stroke-width="1"/>
  <line x1="90" y1="70" x2="90" y2="470" stroke="#7B8794" stroke-width="1"/>
  <line x1="90" y1="70.0" x2="880" y2="70.0" stroke="#D9E2EC" stroke-width="1"/>
  <text x="80" y="74.0" text-anchor="end" font-family="Helvetica, Arial, sans-serif" font-size="11" fill="#52606D">2.75</text>
  <line x1="90" y1="150.0" x2="880" y2="150.0" stroke="#D9E2EC" stroke-width="1"/>
  <text x="80" y="154.0" text-anchor="end" font-family="Helvetica, Arial, sans-serif" font-size="11" fill="#52606D">2.20</text>
  <line x1="90" y1="230.0" x2="880" y2="230.0" stroke="#D9E2EC" stroke-width="1"/>
  <text x="80" y="234.0" text-anchor="end" font-family="Helvetica, Arial, sans-serif" font-size="11" fill="#52606D">1.65</text>
  <line x1="90" y1="310.0" x2="880" y2="310.0" stroke="#D9E2EC" stroke-width="1"/>
  <text x="80" y="314.0" text-anchor="end" font-family="Helvetica, Arial, sans-serif" font-size="11" fill="#52606D">1.10</text>
  <line x1="90" y1="390.0" x2="880" y2="390.0" stroke="#D9E2EC" stroke-width="1"/>
  <text x="80" y="394.0" text-anchor="end" font-family="Helvetica, Arial, sans-serif" font-size="11" fill="#52606D">0.55</text>
  <line x1="90" y1="470.0" x2="880" y2="470.0" stroke="#D9E2EC" stroke-width="1"/>
  <text x="80" y="474.0" text-anchor="end" font-family="Helvetica, Arial, sans-serif" font-size="11" fill="#52606D">0.00</text>
  <rect x="155.8" y="417.5" width="131.7" height="52.5" fill="#3C91E6"/>
  <rect x="155.8" y="170.2" width="131.7" height="247.3" fill="#BC4B51"/>
  <text x="221.7" y="409.5" text-anchor="middle" font-family="Helvetica, Arial, sans-serif" font-size="10" fill="#1F2933">0.36</text>
  <text x="221.7" y="162.2" text-anchor="middle" font-family="Helvetica, Arial, sans-serif" font-size="10" fill="#1F2933">1.70</text>
  <text x="221.7" y="492.0" text-anchor="middle" font-family="Helvetica, Arial, sans-serif" font-size="12" fill="#1F2933">glibc-arena2</text>
  <rect x="419.2" y="417.8" width="131.7" height="52.2" fill="#3C91E6"/>
  <rect x="419.2" y="409.8" width="131.7" height="8.1" fill="#BC4B51"/>
  <text x="485.0" y="409.8" text-anchor="middle" font-family="Helvetica, Arial, sans-serif" font-size="10" fill="#1F2933">0.36</text>
  <text x="485.0" y="401.8" text-anchor="middle" font-family="Helvetica, Arial, sans-serif" font-size="10" fill="#1F2933">0.06</text>
  <text x="485.0" y="492.0" text-anchor="middle" font-family="Helvetica, Arial, sans-serif" font-size="12" fill="#1F2933">jemalloc</text>
  <rect x="682.5" y="417.4" width="131.7" height="52.6" fill="#3C91E6"/>
  <rect x="682.5" y="122.2" width="131.7" height="295.2" fill="#BC4B51"/>
  <text x="748.3" y="409.4" text-anchor="middle" font-family="Helvetica, Arial, sans-serif" font-size="10" fill="#1F2933">0.36</text>
  <text x="748.3" y="114.2" text-anchor="middle" font-family="Helvetica, Arial, sans-serif" font-size="10" fill="#1F2933">2.03</text>
  <text x="748.3" y="492.0" text-anchor="middle" font-family="Helvetica, Arial, sans-serif" font-size="12" fill="#1F2933">tcmalloc</text>
  <rect x="660" y="28" width="12" height="12" fill="#3C91E6"/>
  <text x="678" y="38" font-family="Helvetica, Arial, sans-serif" font-size="11" fill="#1F2933">JVM NMT committed</text>
  <rect x="660" y="46" width="12" height="12" fill="#BC4B51"/>
  <text x="678" y="56" font-family="Helvetica, Arial, sans-serif" font-size="11" fill="#1F2933">Approx. untracked anon/native</text>
</svg>
