<svg xmlns="http://www.w3.org/2000/svg" width="920" height="560" viewBox="0 0 920 560" role="img" aria-labelledby="title desc">
  <title>Performance vs Anonymous Memory</title>
  <desc>jemalloc lowers memory strongly but with a throughput penalty.</desc>
  <rect width="920" height="560" fill="#FAFAF7"/>
  <text x="90" y="36" font-family="Helvetica, Arial, sans-serif" font-size="24" font-weight="700" fill="#1F2933">Performance vs Anonymous Memory</text>
  <text x="90" y="58" font-family="Helvetica, Arial, sans-serif" font-size="12" fill="#52606D">jemalloc lowers memory strongly but with a throughput penalty.</text>
  <text x="24" y="270.0" transform="rotate(-90 24 270.0)" font-family="Helvetica, Arial, sans-serif" font-size="12" fill="#52606D">Average requests/sec</text>
  <line x1="90" y1="470" x2="880" y2="470" stroke="#7B8794" stroke-width="1"/>
  <line x1="90" y1="70" x2="90" y2="470" stroke="#7B8794" stroke-width="1"/>
  <line x1="90" y1="70.0" x2="880" y2="70.0" stroke="#D9E2EC" stroke-width="1"/>
  <text x="80" y="74.0" text-anchor="end" font-family="Helvetica, Arial, sans-serif" font-size="11" fill="#52606D">946</text>
  <line x1="90" y1="150.0" x2="880" y2="150.0" stroke="#D9E2EC" stroke-width="1"/>
  <text x="80" y="154.0" text-anchor="end" font-family="Helvetica, Arial, sans-serif" font-size="11" fill="#52606D">880</text>
  <line x1="90" y1="230.0" x2="880" y2="230.0" stroke="#D9E2EC" stroke-width="1"/>
  <text x="80" y="234.0" text-anchor="end" font-family="Helvetica, Arial, sans-serif" font-size="11" fill="#52606D">814</text>
  <line x1="90" y1="310.0" x2="880" y2="310.0" stroke="#D9E2EC" stroke-width="1"/>
  <text x="80" y="314.0" text-anchor="end" font-family="Helvetica, Arial, sans-serif" font-size="11" fill="#52606D">748</text>
  <line x1="90" y1="390.0" x2="880" y2="390.0" stroke="#D9E2EC" stroke-width="1"/>
  <text x="80" y="394.0" text-anchor="end" font-family="Helvetica, Arial, sans-serif" font-size="11" fill="#52606D">682</text>
  <line x1="90" y1="470.0" x2="880" y2="470.0" stroke="#D9E2EC" stroke-width="1"/>
  <text x="80" y="474.0" text-anchor="end" font-family="Helvetica, Arial, sans-serif" font-size="11" fill="#52606D">616</text>
  <line x1="90.0" y1="70" x2="90.0" y2="470" stroke="#EEF2F6" stroke-width="1"/>
  <text x="90.0" y="492.0" text-anchor="middle" font-family="Helvetica, Arial, sans-serif" font-size="11" fill="#52606D">0.35</text>
  <line x1="248.0" y1="70" x2="248.0" y2="470" stroke="#EEF2F6" stroke-width="1"/>
  <text x="248.0" y="492.0" text-anchor="middle" font-family="Helvetica, Arial, sans-serif" font-size="11" fill="#52606D">0.78</text>
  <line x1="406.0" y1="70" x2="406.0" y2="470" stroke="#EEF2F6" stroke-width="1"/>
  <text x="406.0" y="492.0" text-anchor="middle" font-family="Helvetica, Arial, sans-serif" font-size="11" fill="#52606D">1.21</text>
  <line x1="564.0" y1="70" x2="564.0" y2="470" stroke="#EEF2F6" stroke-width="1"/>
  <text x="564.0" y="492.0" text-anchor="middle" font-family="Helvetica, Arial, sans-serif" font-size="11" fill="#52606D">1.65</text>
  <line x1="722.0" y1="70" x2="722.0" y2="470" stroke="#EEF2F6" stroke-width="1"/>
  <text x="722.0" y="492.0" text-anchor="middle" font-family="Helvetica, Arial, sans-serif" font-size="11" fill="#52606D">2.08</text>
  <line x1="880.0" y1="70" x2="880.0" y2="470" stroke="#EEF2F6" stroke-width="1"/>
  <text x="880.0" y="492.0" text-anchor="middle" font-family="Helvetica, Arial, sans-serif" font-size="11" fill="#52606D">2.51</text>
  <text x="485.0" y="536" text-anchor="middle" font-family="Helvetica, Arial, sans-serif" font-size="12" fill="#52606D">Final anonymous RSS (GiB)</text>
  <circle cx="715.4" cy="135.2" r="9" fill="#4C956C" stroke="#1F2933" stroke-width="1"/>
  <text x="725.4" y="125.2" font-family="Helvetica, Arial, sans-serif" font-size="11" fill="#1F2933">glibc-arena2</text>
  <circle cx="112.7" cy="387.2" r="9" fill="#D97D54" stroke="#1F2933" stroke-width="1"/>
  <text x="122.7" y="377.2" font-family="Helvetica, Arial, sans-serif" font-size="11" fill="#1F2933">jemalloc</text>
  <circle cx="836.2" cy="124.5" r="9" fill="#3C91E6" stroke="#1F2933" stroke-width="1"/>
  <text x="846.2" y="114.5" font-family="Helvetica, Arial, sans-serif" font-size="11" fill="#1F2933">tcmalloc</text>
</svg>
